<?xml version="1.0" encoding="UTF-8" standalone="no"?>
<!-- Created with Inkscape (http://www.inkscape.org/) -->

<svg
   version="1.1"
   id="svg2"
   width="666.66669"
   height="666.66669"
   viewBox="0 0 666.66669 666.66669"
   sodipodi:docname="8796369.ai"
   xmlns:inkscape="http://www.inkscape.org/namespaces/inkscape"
   xmlns:sodipodi="http://sodipodi.sourceforge.net/DTD/sodipodi-0.dtd"
   xmlns="http://www.w3.org/2000/svg"
   xmlns:svg="http://www.w3.org/2000/svg">
  <defs
     id="defs6">
    <clipPath
       clipPathUnits="userSpaceOnUse"
       id="clipPath18">
      <path
         d="M 0,500 H 500 V 0 H 0 Z"
         id="path16" />
    </clipPath>
    <clipPath
       clipPathUnits="userSpaceOnUse"
       id="clipPath30">
      <path
         d="M 0,500 H 500 V 0 H 0 Z"
         id="path28" />
    </clipPath>
  </defs>
  <sodipodi:namedview
     id="namedview4"
     pagecolor="#ffffff"
     bordercolor="#000000"
     borderopacity="0.25"
     inkscape:showpageshadow="2"
     inkscape:pageopacity="0.0"
     inkscape:pagecheckerboard="0"
     inkscape:deskcolor="#d1d1d1" />
  <g
     id="g8"
     inkscape:groupmode="layer"
     inkscape:label="8796369"
     transform="matrix(1.3333333,0,0,-1.3333333,0,666.66667)">
    <path
       d="M 0,0 H 500 V 500 H 0 Z"
       style="fill:#ffffff;fill-opacity:1;fill-rule:nonzero;stroke:none"
       id="path10" />
    <g
       id="g12">
      <g
         id="g14"
         clip-path="url(#clipPath18)">
        <g
           id="g20"
           transform="translate(93.1679,479.2628)">
          <path
             d="M 0,0 C -0.064,0 -0.064,-0.1 0,-0.1 0.064,-0.1 0.064,0 0,0"
             style="fill:#ffffff;fill-opacity:1;fill-rule:nonzero;stroke:none"
             id="path22" />
        </g>
      </g>
    </g>
    <g
       id="g24">
      <g
         id="g26"
         clip-path="url(#clipPath30)">
        <g
           id="g32"
           transform="translate(401.8083,329.6909)">
          <path
             d="m 0,0 c 30.813,-79.083 -12.185,-169.675 -96.025,-202.342 -66.865,-26.053 -139.531,-7.392 -181.838,41.348 -6.346,7.314 -12.006,15.301 -16.858,23.923 -3.376,5.955 -6.349,12.217 -8.902,18.77 -5.446,13.977 -8.582,28.32 -9.598,42.637 -4.733,66.653 36.596,132.799 105.617,159.692 29.592,11.53 60.324,14.303 89.061,9.583 C -99.662,90.52 -81.648,84.18 -65.376,74.977 -40.794,61.057 -20.207,40.56 -6.701,14.735 -4.22,10.009 -1.984,5.091 0,0"
             style="fill:#b2ebf5;fill-opacity:1;fill-rule:nonzero;stroke:none"
             id="path34" />
        </g>
        <g
           id="g36"
           transform="translate(336.4326,404.6677)">
          <path
             d="m 0,0 c -23.006,-9.305 -44.945,-20.774 -63.737,-36.817 -29.158,-24.9 -48.608,-58.929 -69.852,-90.842 -21.24,-31.922 -46.287,-63.515 -81.313,-79.103 -4.689,-2.083 -9.523,-3.849 -14.443,-5.286 -3.376,5.955 -6.349,12.217 -8.902,18.77 -5.446,13.977 -8.583,28.32 -9.598,42.637 25.058,7.951 49.594,16.53 69.14,33.677 25.133,22.042 37.76,54.755 57.609,81.658 17.389,23.556 40.843,42.875 67.929,53.941 C -34.287,15.543 -16.273,9.204 0,0"
             style="fill:#90dae6;fill-opacity:1;fill-rule:nonzero;stroke:none"
             id="path38" />
        </g>
        <g
           id="g40"
           transform="translate(401.8083,329.6909)">
          <path
             d="m 0,0 c 30.813,-79.083 -12.185,-169.675 -96.025,-202.342 -66.865,-26.053 -139.531,-7.392 -181.838,41.348 12.735,5.623 27.691,7.953 41.656,9.844 40.914,5.537 83.694,12.877 116.092,38.464 39.143,30.902 56.389,83.229 95.032,114.758 5.786,4.716 11.956,8.88 18.382,12.663 C -4.22,10.009 -1.984,5.091 0,0"
             style="fill:#90dae6;fill-opacity:1;fill-rule:nonzero;stroke:none"
             id="path42" />
        </g>
        <g
           id="g44"
           transform="translate(476.6305,196.6266)">
          <path
             d="m 0,0 c -0.755,1.392 -2.127,0.911 -3.355,0.606 -1.283,-0.318 -2.586,-0.549 -3.902,-0.681 -2.639,-0.263 -5.328,-0.189 -7.937,0.308 -4.7,0.894 -8.775,3.222 -12.305,6.396 -3.41,3.066 -6.296,6.649 -9.33,10.072 -3.13,3.531 -6.512,6.817 -10.185,9.783 -3.695,2.984 -7.64,5.699 -11.808,7.983 -2.084,1.142 -4.219,2.184 -6.4,3.13 -2.146,0.93 -4.344,1.859 -6.605,2.469 -0.581,0.54 -1.185,1.044 -1.867,1.482 -1.018,0.654 -2.104,1.2 -3.199,1.711 -2.282,1.064 -4.627,1.999 -7.006,2.823 -4.755,1.648 -9.669,2.826 -14.653,3.518 -5.186,0.719 -10.384,0.84 -15.611,0.701 -5.459,-0.144 -10.92,-0.331 -16.377,-0.556 -4.512,-0.186 -9.034,-0.436 -13.532,-0.891 -0.06,0.072 -0.14,0.129 -0.249,0.137 -2.387,0.182 -4.8,0.075 -7.195,0.087 -2.36,0.012 -4.721,0.054 -7.078,0.182 -4.72,0.257 -9.422,0.821 -14.078,1.633 -9.309,1.623 -18.434,4.168 -27.382,7.185 -2.525,0.852 -5.038,1.741 -7.542,2.655 -2.362,0.863 -4.745,1.871 -7.197,2.461 -0.881,0.669 -1.778,1.321 -2.636,2.02 -1.506,1.226 -2.945,2.523 -4.334,3.878 -2.78,2.711 -5.424,5.562 -8.35,8.119 -3.318,2.899 -7.056,5.207 -10.814,7.482 -3.908,2.366 -8.116,4.174 -12.419,5.685 -2.371,0.832 -4.776,1.544 -7.201,2.198 -1.231,0.332 -2.465,0.651 -3.705,0.948 -0.961,0.229 -1.866,0.529 -2.699,1.049 -0.482,1.272 -1.307,2.487 -1.997,3.414 -1.504,2.021 -3.292,3.869 -5.072,5.648 -1.807,1.808 -3.762,3.549 -5.909,4.946 -0.852,0.555 -2.153,1.523 -3.169,0.784 -0.484,-0.351 -0.609,-0.952 -0.771,-1.494 -0.212,-0.705 -0.423,-1.41 -0.634,-2.115 -0.466,-1.552 -0.907,-3.112 -1.372,-4.665 -0.189,-0.631 -0.436,-1.29 -1.095,-1.552 -0.227,-0.09 -0.483,-0.117 -0.738,-0.107 -0.029,0.092 -0.071,0.181 -0.137,0.261 -0.423,0.513 -1.14,0.703 -1.74,0.947 -0.639,0.26 -1.282,0.506 -1.936,0.726 -1.344,0.451 -2.709,0.837 -4.09,1.156 -2.713,0.626 -5.469,1.043 -8.249,1.207 -0.517,0.031 -0.791,-0.592 -0.557,-1 1.438,-2.5 2.856,-5.016 3.97,-7.682 0.891,-2.131 1.844,-4.89 0.386,-7.003 -0.049,-0.072 -0.059,-0.144 -0.049,-0.213 -2.277,-2.624 -4.267,-5.463 -5.981,-8.498 -1.01,-1.787 -1.904,-3.643 -2.685,-5.542 -0.772,-1.88 -1.533,-3.955 -1.309,-6.023 0.223,-2.049 1.212,-3.86 2.217,-5.62 0.436,-0.764 0.843,-1.505 0.408,-2.352 -0.395,-0.768 -1.095,-1.26 -1.748,-1.804 -3.196,-2.665 -6.185,-5.584 -8.999,-8.648 -1.355,-1.474 -2.702,-3.548 -1.499,-5.532 0.907,-1.495 2.793,-1.944 4.187,-2.83 0.048,-0.03 0.098,-0.035 0.147,-0.054 0.593,-1.09 1.351,-2.105 2.105,-3.082 0.82,-1.062 1.678,-2.095 2.623,-3.049 1.806,-1.822 3.955,-3.32 6.387,-4.17 2.663,-0.93 5.367,-0.714 8.061,-0.037 2.543,0.64 5.015,1.572 7.358,2.748 2.133,1.071 4.414,2.356 6.059,4.157 1.292,0.487 2.55,1.103 3.799,1.65 1.578,0.692 3.175,1.355 4.716,2.129 1.347,0.676 2.634,1.488 3.772,2.479 0.094,0.082 0.176,0.174 0.267,0.259 1.003,0.335 1.918,0.953 2.732,1.614 1.011,0.822 1.848,1.844 2.503,2.969 0.855,-0.182 1.285,-1.105 1.497,-1.921 0.299,-1.148 0.468,-2.342 0.694,-3.507 0.47,-2.417 0.931,-4.835 1.405,-7.252 0.939,-4.786 1.881,-9.585 3.084,-14.314 0.337,-1.328 0.69,-2.652 1.063,-3.97 0.237,-0.836 0.503,-1.738 0.867,-2.574 0.216,-6.626 1.095,-13.326 3.789,-19.435 2.662,-6.038 6.659,-11.341 10.655,-16.544 1.167,-1.52 2.332,-3.041 3.483,-4.573 0.563,-0.751 1.12,-1.506 1.676,-2.262 0.276,-0.376 0.553,-0.771 0.866,-1.117 0.095,-0.105 0.205,-0.194 0.309,-0.29 -0.07,-0.802 -0.002,-1.622 0.031,-2.422 0.043,-1.045 0.102,-2.088 0.177,-3.131 0.151,-2.092 0.424,-4.164 0.918,-6.203 0.479,-1.975 1.119,-3.902 1.841,-5.8 0.36,-0.948 0.759,-1.882 1.175,-2.807 0.208,-0.463 0.429,-0.912 0.669,-1.36 0.169,-0.316 0.317,-0.666 0.523,-0.966 -0.177,-2.9 -0.216,-5.803 -0.259,-8.711 -0.053,-3.534 -0.05,-7.068 -0.025,-10.602 0.049,-7.109 0.219,-14.216 0.507,-21.319 0.081,-1.994 0.168,-3.988 0.263,-5.981 0.045,-0.956 0.086,-1.911 0.153,-2.865 0.024,-0.343 0.047,-0.682 0.078,-1.018 -0.149,-0.751 -0.367,-1.482 -0.722,-2.167 -0.447,-0.863 -0.982,-1.675 -1.487,-2.505 -0.521,-0.854 -1.009,-1.745 -1.296,-2.708 -0.306,-1.027 -0.159,-2.051 -0.314,-3.09 -0.16,-1.072 -1.354,-1.498 -2.129,-2.102 -0.931,-0.726 -1.791,-1.529 -2.552,-2.432 -1.513,-1.794 -2.955,-4.089 -1.424,-6.341 1.445,-2.125 4.212,-2.597 6.574,-2.971 2.697,-0.427 5.445,-0.547 8.168,-0.348 4.179,0.306 9.305,1.184 11.714,5.054 0.727,1.168 1.074,2.53 1.282,3.877 0.232,1.498 0.384,3.013 0.479,4.526 0.098,1.571 0.124,3.142 0.06,4.715 -0.031,0.766 -0.067,1.534 -0.163,2.295 -0.035,0.28 -0.099,0.548 -0.159,0.818 0.102,0.233 0.195,0.47 0.321,0.694 0.399,0.713 0.866,1.384 1.346,2.044 0.997,1.372 1.985,2.756 2.555,4.37 0.68,1.929 0.626,4.072 0.601,6.089 -0.029,2.235 -0.135,4.466 -0.316,6.693 -0.104,1.285 -0.283,2.558 -0.439,3.836 -0.073,0.598 -0.182,1.192 -0.291,1.785 -0.034,0.185 -0.065,0.382 -0.099,0.58 0.038,1.779 0.059,3.558 0.117,5.336 0.113,3.454 0.205,6.908 0.381,10.359 0.35,6.82 0.858,13.621 1.665,20.403 0.224,1.876 0.47,3.749 0.68,5.627 0.109,0.978 0.213,1.959 0.291,2.94 0.039,0.487 0.091,0.985 0.071,1.473 -0.002,0.041 -0.014,0.08 -0.017,0.12 0.312,-0.358 0.778,0.128 0.61,0.499 -0.207,0.458 -0.179,0.858 0.001,1.253 7.319,-0.098 14.676,1.007 21.815,2.536 7.281,1.56 14.418,3.721 21.472,6.088 3.531,1.185 7.04,2.431 10.541,3.698 3.514,1.272 7.045,2.545 10.711,3.313 3.668,0.768 7.42,1.027 11.16,1.115 3.436,0.081 6.886,0.077 10.32,-0.073 7.049,-0.31 14.337,-1.473 20.146,-5.765 0.124,-0.092 0.269,-0.125 0.418,-0.131 0.531,-2.199 1.448,-4.335 2.348,-6.39 1.058,-2.416 2.209,-4.8 3.502,-7.099 2.631,-4.676 5.74,-9.045 9.237,-13.113 3.48,-4.049 7.341,-7.771 11.525,-11.088 4.619,-3.662 9.708,-6.763 13.895,-10.949 2.387,-2.386 4.45,-5.062 6.481,-7.75 0.99,-1.31 1.994,-2.623 2.76,-4.081 0.747,-1.423 0.959,-2.857 1.107,-4.433 0.04,-0.418 0.3,-0.666 0.603,-0.738 0.063,-0.341 0.127,-0.677 0.182,-1.003 0.214,-1.272 0.417,-2.545 0.583,-3.824 0.1,-0.769 0.183,-1.541 0.254,-2.314 -0.028,-1.623 -0.2,-3.254 -0.591,-4.83 -0.204,-0.819 -0.458,-1.635 -0.784,-2.413 -0.155,-0.373 -0.373,-0.783 -0.532,-1.203 -0.183,-0.102 -0.367,-0.204 -0.547,-0.307 -0.592,-0.338 -1.19,-0.651 -1.809,-0.937 -0.631,-0.292 -1.278,-0.54 -1.942,-0.75 -0.703,-0.223 -1.453,-0.347 -2.11,-0.695 -1.15,-0.609 -1.825,-1.856 -1.988,-3.112 -0.185,-1.429 0.039,-3.459 1.337,-4.314 0.139,-0.092 0.287,-0.087 0.418,-0.033 0.216,-0.741 0.597,-1.419 1.233,-1.889 1.12,-0.83 2.69,-1.085 4.042,-1.228 1.553,-0.164 3.391,-0.077 4.743,0.801 0.949,-0.418 2.134,-0.44 3.136,-0.407 1.016,0.033 2.047,0.131 3.044,0.333 0.851,0.173 1.642,0.553 2.16,1.269 0.558,0.774 0.821,1.799 1.157,2.684 0.379,1 0.615,1.989 0.842,3.029 0.049,0.223 0.008,0.523 -0.187,0.674 -0.168,0.13 -0.285,0.181 -0.494,0.198 -0.011,10e-4 -0.021,-0.004 -0.032,-0.004 1.303,0.923 2.313,1.955 2.464,3.67 0.191,2.167 0.129,4.38 0.177,6.555 0.099,4.488 0.152,8.966 -0.142,13.448 -0.078,1.182 -0.149,2.371 -0.29,3.548 -0.013,0.102 -0.031,0.205 -0.045,0.308 1.473,-2.079 2.823,-4.249 3.994,-6.509 0.761,-1.468 1.439,-2.977 2.071,-4.505 0.213,-0.516 0.397,-1.046 0.591,-1.57 0.083,-0.295 0.167,-0.589 0.245,-0.879 0.269,-1.001 0.553,-1.998 0.821,-3 0.565,-2.113 1.097,-4.25 1.282,-6.436 0.305,-3.605 -0.431,-7.465 -2.732,-10.356 -1.102,-0.482 -2.279,-0.802 -3.427,-1.146 -1.469,-0.441 -2.994,-1.066 -3.815,-2.447 -0.81,-1.362 -0.627,-3.227 -0.24,-4.696 0.223,-0.845 0.586,-1.907 1.146,-2.753 0.244,-0.524 0.59,-1.009 1.037,-1.368 0.261,-0.21 0.612,-0.391 0.976,-0.483 -0.044,-0.236 0.109,-0.519 0.402,-0.517 4.389,0.028 8.811,-0.957 13.194,-0.376 1.942,0.257 3.997,0.685 5.178,2.399 1.058,1.533 1.759,4.259 0.735,5.952 -0.029,0.048 -0.073,0.064 -0.109,0.098 0.211,0.404 0.404,0.817 0.561,1.246 0.498,1.36 0.54,2.782 0.121,4.17 -0.417,1.387 -1.151,2.665 -1.707,3.998 -0.572,1.374 -1.026,2.792 -1.249,4.267 -0.465,3.072 -0.376,6.279 -0.385,9.379 -0.009,3.124 0.042,6.245 0.153,9.367 0.094,2.623 0.239,5.242 0.317,7.864 0.095,0.497 0.179,0.996 0.211,1.518 0.064,1.063 -0.012,2.146 -0.049,3.209 -0.064,1.865 0.027,3.904 -0.475,5.716 -0.483,1.743 -1.834,2.933 -3.21,4.007 -1.475,1.152 -3.05,2.16 -4.638,3.149 -2.884,1.796 -5.643,3.67 -8.122,6.008 -2.35,2.216 -4.402,4.698 -6.193,7.383 -1.545,2.316 -2.751,4.778 -3.848,7.308 -0.159,2.937 -0.451,5.878 -0.626,8.815 -0.21,3.521 -0.285,7.048 -0.404,10.572 -0.235,7.025 -0.696,14.19 -2.767,20.949 -0.262,0.855 -0.555,1.698 -0.866,2.534 2.099,-2.602 4.811,-4.772 7.583,-6.523 4.247,-2.682 9.012,-4.51 13.905,-5.599 2.615,-0.582 5.277,-0.954 7.947,-1.162 2.519,-0.197 5.091,-0.325 7.584,0.169 2.282,0.453 4.331,1.575 5.709,3.476 C 0.363,-4.369 1.022,-1.883 0,0"
             style="fill:#171714;fill-opacity:1;fill-rule:nonzero;stroke:none"
             id="path46" />
        </g>
        <g
           id="g48"
           transform="translate(434.1042,123.0844)">
          <path
             d="M 0,0 C 0.16,0.002 0.279,0.065 0.357,0.16 0.397,0.206 0.426,0.261 0.445,0.32 0.541,0.611 0.387,0.997 -0.012,0.992 -0.172,0.99 -0.291,0.927 -0.37,0.833 -0.527,0.645 -0.524,0.335 -0.362,0.151 -0.281,0.059 -0.16,-0.002 0,0"
             style="fill:#171714;fill-opacity:1;fill-rule:nonzero;stroke:none"
             id="path50" />
        </g>
        <g
           id="g52"
           transform="translate(166.7016,202.3073)">
          <path
             d="M 0,0 C 0.011,0.019 0.016,0.052 0.015,0.07 0.013,0.044 0.009,0.021 0,0.005 0,0.003 0,0.002 0,0"
             style="fill:#171714;fill-opacity:1;fill-rule:nonzero;stroke:none"
             id="path54" />
        </g>
        <g
           id="g56"
           transform="translate(174.3397,184.8279)">
          <path
             d="m 0,0 c -0.96,3.162 -2.341,6.186 -3.86,9.116 -1.266,2.442 -2.566,4.882 -4.028,7.215 0.066,0.086 0.128,0.174 0.153,0.284 0.026,0.122 0.045,0.259 0.054,0.38 0.006,0.081 0.008,0.162 0.016,0.243 0.002,0.023 0.003,0.035 0.004,0.044 10e-4,0.008 10e-4,0.011 0.003,0.02 0.008,0.059 0.014,0.118 0.02,0.177 -0.001,-10e-4 -0.001,-0.004 -0.002,-0.005 10e-4,0.002 10e-4,0.007 0.002,0.01 l 0.003,0.02 c 0.006,0.064 0.012,0.065 0.012,0.046 0.002,0.02 0.003,0.041 0.005,0.054 0.017,0.087 0.037,0.174 0.061,0.259 0.01,0.039 0.024,0.077 0.036,0.115 1.435,0.986 2.772,2.346 3.857,3.671 1.134,1.382 2.065,2.97 2.493,4.72 0.897,3.671 -1.225,6.7 -2.157,10.097 -0.22,0.8 -0.18,1.636 -0.382,2.426 -0.221,0.862 -0.989,1.249 -1.817,1.328 -0.885,0.085 -1.799,-0.007 -2.687,-0.01 -1.069,-0.004 -2.14,0.017 -3.206,0.108 -1.919,0.164 -3.861,0.566 -5.601,1.417 -0.739,0.361 -1.448,0.794 -2.086,1.314 -0.636,0.517 -1.145,1.303 -1.872,1.687 -0.905,0.479 -1.883,-0.053 -2.754,-0.338 -1.078,-0.353 -2.159,-0.689 -3.227,-1.074 -2.083,-0.751 -4.324,-1.534 -6.203,-2.725 -0.278,0.501 -0.724,0.911 -1.079,1.354 -0.397,0.496 -0.767,1.013 -1.171,1.504 -0.805,0.979 -1.713,1.871 -2.703,2.661 -1.956,1.562 -4.162,2.744 -6.557,3.479 -0.616,0.189 -1.054,-0.405 -0.959,-0.96 0.384,-2.248 0.821,-4.486 1.319,-6.712 0.239,-1.072 0.505,-2.136 0.786,-3.198 0.144,-0.546 0.277,-1.141 0.461,-1.713 -2.637,0.995 -5.423,1.523 -8.258,1.52 -0.819,-10e-4 -1.638,-0.049 -2.452,-0.142 -0.721,-0.083 -1.539,-0.142 -1.959,-0.828 -0.358,-0.584 -0.229,-1.288 -0.112,-1.92 0.171,-0.931 0.392,-1.855 0.638,-2.769 0.933,-3.465 2.684,-6.62 3.97,-9.956 0.626,-1.626 1.261,-3.296 1.651,-4.995 0.397,-1.723 0.687,-3.471 0.865,-5.231 0.289,-2.853 0.401,-5.785 0.253,-8.678 -0.05,-0.078 -0.089,-0.168 -0.101,-0.279 -0.276,-2.491 -2.371,-4.014 -4.449,-5.039 -2.292,-1.129 -4.632,-2.163 -6.929,-3.284 -4.688,-2.287 -9.314,-4.721 -13.721,-7.517 -2.179,-1.383 -4.301,-2.855 -6.345,-4.431 -2.02,-1.556 -3.984,-3.177 -5.604,-5.159 -3.175,-3.884 -5.427,-8.518 -7.15,-13.204 -0.966,-2.626 -1.767,-5.311 -2.489,-8.013 -0.699,-2.62 -1.334,-5.279 -1.63,-7.978 -0.256,-0.564 -0.513,-1.128 -0.734,-1.715 -0.583,-1.548 -1.09,-3.124 -1.566,-4.708 -0.953,-3.169 -1.727,-6.392 -2.381,-9.636 -0.661,-3.276 -1.249,-6.574 -1.725,-9.882 -0.492,-3.421 -0.788,-6.868 -0.313,-10.308 0.099,-0.718 0.239,-1.43 0.396,-2.14 -0.478,-0.744 -1.337,-1.22 -2.207,-1.524 -1.494,-0.523 -3.052,-0.905 -4.581,-1.306 -3.044,-0.799 -6.112,-1.482 -9.233,-1.9 -0.014,0.191 -0.139,0.355 -0.4,0.329 -1.644,-0.163 -3.277,-0.417 -4.913,-0.65 -1.544,-0.008 -3.089,0.027 -4.651,0.036 -2.307,0.012 -4.605,-0.255 -6.831,-0.837 -0.099,-0.001 -0.197,-0.007 -0.296,-0.008 -2.741,-0.042 -5.486,0.032 -8.227,-0.021 -1.232,-0.023 -2.382,-0.437 -2.886,-1.648 -0.433,-1.04 -0.375,-2.308 -0.038,-3.368 1.704,-5.365 8.239,-5.992 12.993,-6.084 5.661,-0.11 11.297,0.919 16.767,2.294 5.898,1.483 11.69,3.361 17.617,4.731 0.013,0.003 0.024,-0.002 0.037,0.002 0.15,0.038 0.299,0.076 0.449,0.114 0.25,-0.488 0.515,-0.967 0.791,-1.439 0.328,-0.155 0.633,-0.404 0.88,-0.792 1.182,-1.85 3.374,-2.797 5.329,-3.613 2.202,-0.92 4.472,-1.665 6.677,-2.578 5.359,-2.219 10.92,-3.774 16.74,-3.996 5.442,-0.207 10.951,0.292 16.26,1.51 5.239,1.202 10.401,3.008 15.13,5.579 1.612,0.877 3.179,1.777 4.753,2.629 0.764,0.748 1.565,1.458 2.408,2.108 4.792,1.203 9.805,1.138 14.68,1.808 2.297,0.315 5.291,0.643 6.115,3.238 0.088,0.277 0.134,0.578 0.139,0.879 0.082,0.02 0.164,0.027 0.246,0.074 0.922,0.521 1.009,1.952 0.725,2.867 -0.094,0.299 -0.237,0.561 -0.412,0.791 0.035,0.034 0.08,0.059 0.109,0.097 0.335,0.45 0.295,1.036 -0.087,1.45 -1.063,1.156 -2.627,1.817 -4.193,1.821 -0.937,1.895 -3.059,3.007 -5.013,2.561 0.531,2.524 1.229,5.014 1.986,7.477 0.691,2.251 1.452,4.5 2.269,6.719 0.157,0.038 0.306,0.128 0.416,0.285 0.879,1.257 1.476,2.714 2.089,4.117 0.581,1.329 1.146,2.666 1.695,4.009 1.137,2.782 2.193,5.596 3.175,8.435 1.965,5.678 3.632,11.459 4.991,17.312 1.363,5.871 2.54,11.833 3.083,17.841 C 1.912,-11.937 1.759,-5.795 0,0"
             style="fill:#171714;fill-opacity:1;fill-rule:nonzero;stroke:none"
             id="path58" />
        </g>
      </g>
    </g>
  </g>
</svg>
